<?xml version="1.0" encoding="UTF-8" standalone="no"?>
<svg
   width="1200"
   height="800"
   viewBox="0 0 1200.0009 800"
   version="1.1"
   id="svg68"
   sodipodi:docname="libfdx_logo_dark.svg"
   inkscape:version="1.4.4 (dcaf3e7, 2026-05-05)"
   inkscape:export-filename="libFDX_logo.png"
   inkscape:export-xdpi="39.196171"
   inkscape:export-ydpi="39.196171"
   xmlns:inkscape="http://www.inkscape.org/namespaces/inkscape"
   xmlns:sodipodi="http://sodipodi.sourceforge.net/DTD/sodipodi-0.dtd"
   xmlns="http://www.w3.org/2000/svg"
   xmlns:svg="http://www.w3.org/2000/svg">
  <defs
     id="defs68" />
  <sodipodi:namedview
     id="namedview68"
     pagecolor="#ffffff"
     bordercolor="#000000"
     borderopacity="0.25"
     inkscape:showpageshadow="2"
     inkscape:pageopacity="0.0"
     inkscape:pagecheckerboard="0"
     inkscape:deskcolor="#d1d1d1"
     inkscape:zoom="0.96730463"
     inkscape:cx="542.22836"
     inkscape:cy="545.32976"
     inkscape:window-width="2560"
     inkscape:window-height="1494"
     inkscape:window-x="-11"
     inkscape:window-y="-11"
     inkscape:window-maximized="1"
     inkscape:current-layer="svg68"
     showgrid="false" />
  <rect
     width="1202.3099"
     height="804.29675"
     fill="#000000"
     id="rect1"
     inkscape:label="black background"
     x="0"
     y="0"
     style="display:none;stroke-width:0.784185" />
  <g
     id="g68"
     inkscape:label="logo"
     transform="matrix(1.141524,0,0,1.141524,-117.03117,-104.07788)">
    <polygon
       points="559,403 617,301 620,156 445,480 "
       fill="#0265fe"
       id="polygon1"
       style="display:inline" />
    <polygon
       points="700,405 812,480 637,156 643,304 "
       fill="#0265fe"
       id="polygon2"
       style="display:inline" />
    <polygon
       points="618,430 565,429 453,495 568,494 "
       fill="#0265fe"
       id="polygon3" />
    <polygon
       points="640,430 689,494 805,495 692,429 "
       fill="#0265fe"
       id="polygon4" />
  </g>
  <g
     id="g71"
     inkscape:label="libFDX"
     transform="matrix(1.141524,0,0,1.141524,-117.03117,-60.9642)">
    <polygon
       points="240,661 219,661 217,659 217,544 191,544 191,668 211,688 240,688 "
       fill="#ffffff"
       id="polygon5"
       inkscape:label="letter l" />
    <g
       id="g70"
       inkscape:label="letter i">
      <polygon
         points="276,544 275,571 302,571 302,545 "
         fill="#ffffff"
         id="polygon6" />
      <polygon
         points="275,585 275,688 302,688 302,585 "
         fill="#ffffff"
         id="polygon7" />
    </g>
    <path
       d="m 341,544 v 115 l 28,29 91,-1 26,-28 v -47 l -29,-29 h -88 l -1,-39 z m 27,68 80,-1 12,13 v 24 l -12,12 h -69 l -11,-12 z"
       fill="#ffffff"
       fill-rule="evenodd"
       id="path7"
       inkscape:label="letter b" />
    <polygon
       points="691,544 566,545 539,574 539,688 567,688 568,634 655,634 665,607 568,607 567,584 575,576 675,573 "
       fill="#ffffff"
       id="polygon8"
       inkscape:label="letter f" />
    <polygon
       points="754,663 753,590 725,590 725,691 850,691 882,661 883,579 852,547 735,544 719,571 842,574 857,589 857,648 841,664 "
       fill="#ffffff"
       id="polygon9"
       inkscape:label="letter d" />
    <g
       id="g69"
       inkscape:label="letter x">
      <polygon
         points="1069,544 1033,544 910,689 944,688 "
         fill="#0265fe"
         id="polygon10" />
      <polygon
         points="910,544 961,603 979,583 947,545 "
         fill="#0265fe"
         id="polygon11" />
      <polygon
         points="999,646 1034,688 1070,689 1017,626 "
         fill="#0265fe"
         id="polygon12" />
    </g>
  </g>
</svg>
